<svg width="1512" height="591" viewBox="0 0 1512 591" fill="none" xmlns="http://www.w3.org/2000/svg">
<path d="M445.785 290.51C443.915 290.51 442.215 289.575 440.685 287.705C439.155 285.665 437.88 283.625 436.86 281.585L397.59 205.085H365.205V283.37C365.205 285.58 364.27 287.28 362.4 288.47C360.7 289.49 358.83 290 356.79 290C354.58 290 352.625 289.49 350.925 288.47C349.225 287.28 348.375 285.58 348.375 283.37V109.97C348.375 108.27 348.97 106.825 350.16 105.635C351.35 104.445 352.88 103.765 354.75 103.595H399.885C409.915 103.595 419.095 105.125 427.425 108.185C435.755 111.245 442.385 116.43 447.315 123.74C452.415 131.05 454.965 141.08 454.965 153.83C454.965 164.37 453.18 173.04 449.61 179.84C446.21 186.64 441.45 191.91 435.33 195.65C429.38 199.22 422.665 201.685 415.185 203.045L454.455 278.525C454.965 279.035 455.22 279.63 455.22 280.31C455.39 280.82 455.475 281.33 455.475 281.84C455.475 283.2 454.965 284.56 453.945 285.92C453.095 287.28 451.905 288.385 450.375 289.235C448.845 290.085 447.315 290.51 445.785 290.51ZM365.205 190.55H399.885C411.275 190.55 420.455 187.83 427.425 182.39C434.565 176.78 438.135 167.6 438.135 154.85C438.135 141.93 434.565 132.75 427.425 127.31C420.455 121.87 411.275 119.15 399.885 119.15H365.205V190.55ZM490.747 290C488.877 290 487.092 289.49 485.392 288.47C483.862 287.28 483.097 285.58 483.097 283.37V110.225C483.097 108.015 483.862 106.4 485.392 105.38C487.092 104.19 488.877 103.595 490.747 103.595H581.527C583.737 103.595 585.352 104.445 586.372 106.145C587.392 107.675 587.902 109.375 587.902 111.245C587.902 113.285 587.307 115.155 586.117 116.855C585.097 118.385 583.567 119.15 581.527 119.15H499.927V189.275H539.962C542.002 189.275 543.532 190.04 544.552 191.57C545.742 193.1 546.337 194.885 546.337 196.925C546.337 198.625 545.827 200.24 544.807 201.77C543.787 203.3 542.172 204.065 539.962 204.065H499.927V274.445H581.527C583.567 274.445 585.097 275.21 586.117 276.74C587.307 278.27 587.902 280.14 587.902 282.35C587.902 284.22 587.392 286.005 586.372 287.705C585.352 289.235 583.737 290 581.527 290H490.747ZM621.004 290C618.794 290 616.839 289.49 615.139 288.47C613.439 287.45 612.589 285.835 612.589 283.625V110.225C612.589 108.015 613.354 106.4 614.884 105.38C616.584 104.19 618.369 103.595 620.239 103.595H710.509C712.719 103.595 714.334 104.445 715.354 106.145C716.374 107.675 716.884 109.375 716.884 111.245C716.884 113.285 716.289 115.155 715.099 116.855C714.079 118.385 712.549 119.15 710.509 119.15H629.419V189.275H669.709C671.579 189.275 673.024 190.04 674.044 191.57C675.234 193.1 675.829 194.885 675.829 196.925C675.829 198.625 675.319 200.24 674.299 201.77C673.449 203.3 671.919 204.065 669.709 204.065H629.419V283.625C629.419 285.835 628.484 287.45 626.614 288.47C624.914 289.49 623.044 290 621.004 290ZM746.743 290C744.873 290 743.088 289.49 741.388 288.47C739.858 287.28 739.093 285.58 739.093 283.37V109.97C739.093 107.76 739.943 106.145 741.643 105.125C743.343 104.105 745.298 103.595 747.508 103.595C749.548 103.595 751.418 104.105 753.118 105.125C754.988 106.145 755.923 107.76 755.923 109.97V274.445H828.598C830.638 274.445 832.083 275.295 832.933 276.995C833.783 278.525 834.208 280.225 834.208 282.095C834.208 284.135 833.783 286.005 832.933 287.705C832.083 289.235 830.638 290 828.598 290H746.743ZM864.531 290C862.661 290 860.876 289.49 859.176 288.47C857.646 287.28 856.881 285.58 856.881 283.37V110.225C856.881 108.015 857.646 106.4 859.176 105.38C860.876 104.19 862.661 103.595 864.531 103.595H955.311C957.521 103.595 959.136 104.445 960.156 106.145C961.176 107.675 961.686 109.375 961.686 111.245C961.686 113.285 961.091 115.155 959.901 116.855C958.881 118.385 957.351 119.15 955.311 119.15H873.711V189.275H913.746C915.786 189.275 917.316 190.04 918.336 191.57C919.526 193.1 920.121 194.885 920.121 196.925C920.121 198.625 919.611 200.24 918.591 201.77C917.571 203.3 915.956 204.065 913.746 204.065H873.711V274.445H955.311C957.351 274.445 958.881 275.21 959.901 276.74C961.091 278.27 961.686 280.14 961.686 282.35C961.686 284.22 961.176 286.005 960.156 287.705C959.136 289.235 957.521 290 955.311 290H864.531ZM1033.89 291.53C1024.37 291.53 1015.53 289.745 1007.37 286.175C999.207 282.605 992.747 276.825 987.987 268.835C983.227 260.845 980.847 250.22 980.847 236.96V158.165C980.847 144.905 983.312 134.28 988.242 126.29C993.172 118.3 999.632 112.52 1007.62 108.95C1015.78 105.38 1024.71 103.595 1034.4 103.595C1045.62 103.595 1055.14 105.55 1062.96 109.46C1070.78 113.37 1076.73 118.555 1080.81 125.015C1085.06 131.475 1087.18 138.615 1087.18 146.435C1087.18 150.515 1086.42 153.235 1084.89 154.595C1083.53 155.785 1081.49 156.38 1078.77 156.38C1075.71 156.38 1073.5 155.785 1072.14 154.595C1070.95 153.235 1070.27 151.705 1070.1 150.005C1070.1 147.285 1069.59 144.225 1068.57 140.825C1067.72 137.255 1066.02 133.855 1063.47 130.625C1061.09 127.225 1057.52 124.505 1052.76 122.465C1048.17 120.255 1042.13 119.15 1034.65 119.15C1022.75 119.15 1013.66 122.38 1007.37 128.84C1001.08 135.13 997.932 144.905 997.932 158.165V236.96C997.932 250.39 1001.08 260.25 1007.37 266.54C1013.83 272.83 1023.18 275.975 1035.42 275.975C1043.07 275.975 1049.1 274.955 1053.52 272.915C1057.94 270.705 1061.26 268.07 1063.47 265.01C1065.68 261.78 1067.21 258.38 1068.06 254.81C1069.08 251.07 1069.76 247.67 1070.1 244.61C1070.44 242.4 1071.2 240.785 1072.39 239.765C1073.75 238.575 1075.79 237.98 1078.51 237.98C1081.4 237.98 1083.53 238.745 1084.89 240.275C1086.42 241.635 1087.18 244.355 1087.18 248.435C1087.18 256.085 1085.06 263.225 1080.81 269.855C1076.56 276.315 1070.44 281.585 1062.45 285.665C1054.63 289.575 1045.11 291.53 1033.89 291.53ZM1158.43 290C1156.22 290 1154.26 289.49 1152.56 288.47C1150.86 287.28 1150.01 285.58 1150.01 283.37V119.405H1107.17C1105.13 119.405 1103.52 118.64 1102.33 117.11C1101.14 115.41 1100.54 113.54 1100.54 111.5C1100.54 109.46 1101.14 107.675 1102.33 106.145C1103.52 104.445 1105.13 103.595 1107.17 103.595H1209.43C1211.64 103.595 1213.25 104.445 1214.27 106.145C1215.29 107.675 1215.8 109.375 1215.8 111.245C1215.8 113.285 1215.29 115.155 1214.27 116.855C1213.25 118.555 1211.64 119.405 1209.43 119.405H1166.84V283.37C1166.84 285.58 1165.91 287.28 1164.04 288.47C1162.34 289.49 1160.47 290 1158.43 290Z" fill="white"/>
<path d="M640.498 502.51C638.628 502.51 636.928 501.575 635.398 499.705C633.868 497.665 632.593 495.625 631.573 493.585L592.303 417.085H559.918V495.37C559.918 497.58 558.983 499.28 557.113 500.47C555.413 501.49 553.543 502 551.503 502C549.293 502 547.338 501.49 545.638 500.47C543.938 499.28 543.088 497.58 543.088 495.37V321.97C543.088 320.27 543.683 318.825 544.873 317.635C546.063 316.445 547.593 315.765 549.463 315.595H594.598C604.628 315.595 613.808 317.125 622.138 320.185C630.468 323.245 637.098 328.43 642.028 335.74C647.128 343.05 649.678 353.08 649.678 365.83C649.678 376.37 647.893 385.04 644.323 391.84C640.923 398.64 636.163 403.91 630.043 407.65C624.093 411.22 617.378 413.685 609.898 415.045L649.168 490.525C649.678 491.035 649.933 491.63 649.933 492.31C650.103 492.82 650.188 493.33 650.188 493.84C650.188 495.2 649.678 496.56 648.658 497.92C647.808 499.28 646.618 500.385 645.088 501.235C643.558 502.085 642.028 502.51 640.498 502.51ZM559.918 402.55H594.598C605.988 402.55 615.168 399.83 622.138 394.39C629.278 388.78 632.848 379.6 632.848 366.85C632.848 353.93 629.278 344.75 622.138 339.31C615.168 333.87 605.988 331.15 594.598 331.15H559.918V402.55ZM730.084 503.53C720.054 503.53 711.044 501.745 703.054 498.175C695.064 494.605 688.689 488.825 683.929 480.835C679.169 472.845 676.789 462.22 676.789 448.96V321.97C676.789 319.76 677.639 318.145 679.339 317.125C681.039 316.105 682.994 315.595 685.204 315.595C687.414 315.595 689.369 316.105 691.069 317.125C692.769 318.145 693.619 319.76 693.619 321.97V448.96C693.619 462.39 696.849 472.25 703.309 478.54C709.769 484.83 718.694 487.975 730.084 487.975C741.644 487.975 750.654 484.83 757.114 478.54C763.574 472.25 766.804 462.39 766.804 448.96V321.97C766.804 319.76 767.654 318.145 769.354 317.125C771.054 316.105 773.009 315.595 775.219 315.595C777.429 315.595 779.384 316.105 781.084 317.125C782.784 318.145 783.634 319.76 783.634 321.97V448.96C783.634 462.22 781.254 472.845 776.494 480.835C771.904 488.825 765.529 494.605 757.369 498.175C749.209 501.745 740.114 503.53 730.084 503.53ZM829.911 502C827.701 502 825.746 501.49 824.046 500.47C822.346 499.28 821.496 497.58 821.496 495.37V321.97C821.496 319.59 822.346 317.975 824.046 317.125C825.746 316.105 827.701 315.595 829.911 315.595C831.951 315.595 833.736 316.19 835.266 317.38C836.796 318.4 838.241 319.845 839.601 321.715C840.961 323.415 842.151 325.37 843.171 327.58L912.021 462.985V321.97C912.021 319.76 912.871 318.145 914.571 317.125C916.271 316.105 918.226 315.595 920.436 315.595C922.476 315.595 924.346 316.105 926.046 317.125C927.916 318.145 928.851 319.76 928.851 321.97V495.37C928.851 497.58 927.916 499.28 926.046 500.47C924.346 501.49 922.476 502 920.436 502C918.056 502 915.846 501.065 913.806 499.195C911.936 497.155 910.406 494.86 909.216 492.31L838.326 354.355V495.37C838.326 497.58 837.391 499.28 835.521 500.47C833.821 501.49 831.951 502 829.911 502Z" fill="white"/>
</svg>
